<svg id="Capa_1" enable-background="new 0 0 512 512" height="512" viewBox="0 0 512 512" width="512" xmlns="http://www.w3.org/2000/svg"><g><g><g><path d="m400.508 211.804c4.353 0 8.697-1.828 11.784-5.452 5.364-6.298 4.554-15.795-1.443-21.494l-12.099-11.496c-2.83-2.689-2.857-7.192-.058-9.914l66.322-64.515c8.424-8.125 13.255-19.495 13.255-31.197 0-23.899-19.443-43.342-43.342-43.342h-91.851c-8.321 0-15.48 6.394-15.872 14.706-.418 8.874 6.653 16.2 15.435 16.2h92.287c6.858 0 12.437 5.579 12.437 12.437 0 3.357-1.386 6.621-3.804 8.952l-71.452 68.91c-6.118 5.901-9.608 14.16-9.576 22.658.032 8.499 3.584 16.73 9.745 22.584l17.59 16.714c2.99 2.84 6.82 4.249 10.642 4.249z" fill="#faab18"/></g></g><g><g><path d="m111.492 211.804c-4.353 0-8.697-1.828-11.784-5.452-5.364-6.298-4.554-15.795 1.443-21.494l12.099-11.496c2.83-2.689 2.857-7.192.058-9.914l-66.322-64.515c-8.424-8.125-13.255-19.495-13.255-31.197 0-23.899 19.443-43.342 43.342-43.342h91.851c8.321 0 15.48 6.394 15.872 14.706.418 8.874-6.653 16.2-15.435 16.2h-92.288c-6.858 0-12.437 5.579-12.437 12.437 0 3.357 1.386 6.621 3.804 8.952l71.452 68.91c6.118 5.901 9.608 14.16 9.576 22.658-.032 8.499-3.584 16.73-9.745 22.584l-17.59 16.714c-2.989 2.84-6.819 4.249-10.641 4.249z" fill="#faab18"/></g></g><g><path d="m279.588 322.921v-26.967l-30.215-9.574-9.642 36.541c0 13.13-14.088 28.054-26.702 31.699l-7.788 1.854c-4.019 1.161-2.967 1.921-2.967 6.105l15.323 19.775 41.313 37.786 56.76-37.786v-19.775c0-4.183-2.767-7.863-6.786-9.024l-7.998-2.311c-12.614-3.645-21.298-15.193-21.298-28.323z" fill="#faab18"/></g><g><path d="m232.415 248.183v74.738c0 13.13-8.683 24.678-21.298 28.323l-7.998 2.311c-4.019 1.161-6.786 4.84-6.786 9.024v19.775h21.263v-19.775c0-4.183 2.767-7.863 6.786-9.024l7.998-2.311c12.614-3.645 21.298-15.192 21.298-28.323v-24.766c.775.015 1.546.044 2.324.044 8.066 0 15.949-.777 23.587-2.245v-47.771z" fill="#f5901e"/></g><g><path d="m159.995 400.36-.494 104.337c0 2.559 5.352 7.304 7.912 7.304h190.459c2.559 0 4.634-2.075 4.634-4.634v-120.379c0-2.559-2.075-4.634-4.634-4.634h-187.987c-2.559-.001-9.89 15.446-9.89 18.006z" fill="#365f7e"/></g><g><path d="m170.018 507.366v-120.379c0-2.559 2.075-4.634 4.634-4.634h-20.521c-2.559 0-4.634 2.075-4.634 4.634v120.378c0 2.559 2.075 4.634 4.634 4.634h20.521c-2.559.001-4.634-2.074-4.634-4.633z" fill="#2c4d66"/></g><g><path d="m362.506 169.123v-158.821c0-5.69-4.612-10.302-10.302-10.302h-177.869c-5.69 0-8.901 4.612-8.901 10.302v158.821c0 58.821 31.746 106.504 90.567 106.504 58.821.001 106.505-47.683 106.505-106.504z" fill="#fdcd08"/></g><g><path d="m170.76 169.123v-158.821c0-5.69 4.612-10.302 10.302-10.302h-21.263c-5.69 0-10.302 4.612-10.302 10.302v158.821c0 58.821 47.684 106.504 106.504 106.504 3.588 0 7.134-.18 10.631-.527-53.828-5.335-95.872-50.744-95.872-105.977z" fill="#faab18"/></g><g><path d="m254.211 157.113-27.204 14.302c-2.823 1.484-6.122-.913-5.583-4.056l5.195-30.292c.214-1.248-.2-2.522-1.107-3.406l-22.008-21.453c-2.284-2.226-1.023-6.104 2.132-6.563l30.415-4.42c1.253-.182 2.337-.969 2.897-2.105l13.602-27.56c1.411-2.86 5.489-2.86 6.9 0l13.602 27.56c.56 1.136 1.644 1.923 2.897 2.105l30.415 4.42c3.156.459 4.416 4.337 2.132 6.563l-22.008 21.453c-.907.884-1.321 2.157-1.107 3.406l5.195 30.292c.539 3.143-2.76 5.54-5.583 4.056l-27.204-14.302c-1.118-.589-2.457-.589-3.578 0z" fill="#f6f1f1"/></g><g><path d="m234.22 167.359 5.195-30.292c.214-1.248-.2-2.522-1.107-3.406l-22.008-21.452c-2.284-2.226-1.023-6.104 2.132-6.563l30.415-4.42c1.253-.182 2.337-.969 2.897-2.105l10.655-21.589-2.947-5.972c-1.411-2.86-5.489-2.86-6.901 0l-13.602 27.56c-.56 1.136-1.644 1.923-2.897 2.105l-30.415 4.42c-3.156.459-4.416 4.337-2.132 6.563l22.008 21.453c.907.884 1.321 2.158 1.107 3.406l-5.195 30.292c-.539 3.143 2.76 5.54 5.583 4.056l7.185-3.777c.009-.093.011-.185.027-.279z" fill="#e2dfe2"/></g><g><path d="m310.67 470.418h-109.336c-2.761 0-5-2.239-5-5v-36.482c0-2.761 2.239-5 5-5h109.336c2.761 0 5 2.239 5 5v36.482c0 2.761-2.239 5-5 5z" fill="#f6f1f1"/></g><g><path d="m212.652 465.267v-36.18c0-2.845 2.306-5.151 5.151-5.151h-16.318c-2.845 0-5.151 2.306-5.151 5.151v36.18c0 2.845 2.306 5.151 5.151 5.151h16.318c-2.845 0-5.151-2.307-5.151-5.151z" fill="#e2dfe2"/></g></g></svg>